<svg id="svg2" xmlns="http://www.w3.org/2000/svg" viewBox="0 0 11.31 17.84"><title>icon_share_vector_green</title><path d="M8.73,14.38a2.4,2.4,0,0,0,1.19-.32l3.29,3.29a2.41,2.41,0,1,0,.88-.88l-3.28-3.29a2.33,2.33,0,0,0,0-2.37l3.28-3.28a2.41,2.41,0,1,0-.88-.88L9.91,9.91a2.34,2.34,0,0,0-1.19-.31,2.39,2.39,0,1,0,0,4.77Zm6.56,3a1.14,1.14,0,1,1-1.14,1.14A1.14,1.14,0,0,1,15.29,17.41Zm0-13.1a1.14,1.14,0,1,1-1.14,1.14A1.14,1.14,0,0,1,15.29,4.31ZM8.73,10.85A1.14,1.14,0,1,1,7.59,12,1.14,1.14,0,0,1,8.73,10.85Z" transform="translate(-6.34 -3.08)" style="fill:#00b322"/></svg>